<?xml version="1.0" encoding="UTF-8"?>
<svg id="Ebene_1" xmlns="http://www.w3.org/2000/svg" xmlns:xlink="http://www.w3.org/1999/xlink" version="1.1" viewBox="0 0 699.19 190.08">
  <!-- Generator: Adobe Illustrator 30.3.0, SVG Export Plug-In . SVG Version: 2.1.3 Build 182)  -->
  <defs>
    <style>
      .st0 {
        fill: url(#Unbenannter_Verlauf_3);
      }

      .st1 {
        isolation: isolate;
      }

      .st2 {
        fill: #f5f7fb;
      }
    </style>
    <linearGradient id="Unbenannter_Verlauf_3" data-name="Unbenannter Verlauf 3" x1="-136.07" y1="933.92" x2="-135.07" y2="932.92" gradientTransform="translate(19622.46 134508.09) scale(144 -144)" gradientUnits="userSpaceOnUse">
      <stop offset="0" stop-color="#3b6fff"/>
      <stop offset="1" stop-color="#6ee7ff"/>
    </linearGradient>
  </defs>
  <circle class="st0" cx="99.95" cy="95.04" r="72"/>
  <g class="st1">
    <path class="st2" d="M276.18,55.84v53.54c0,8.29-2.33,14.67-7,19.15-4.67,4.48-10.96,6.72-18.87,6.72s-14.93-2.35-19.94-7.06c-5-4.7-7.5-11.38-7.5-20.05h19.04c0,3.29.67,5.77,2.02,7.45,1.34,1.68,3.29,2.52,5.82,2.52,2.31,0,4.11-.75,5.38-2.24,1.27-1.49,1.9-3.66,1.9-6.5v-53.54h19.15Z"/>
    <path class="st2" d="M350.21,107.81h-43.34c.3,3.88,1.55,6.85,3.75,8.9,2.2,2.05,4.91,3.08,8.12,3.08,4.78,0,8.1-2.02,9.97-6.05h20.38c-1.05,4.11-2.93,7.8-5.66,11.09-2.73,3.29-6.14,5.86-10.25,7.73-4.11,1.87-8.7,2.8-13.78,2.8-6.12,0-11.57-1.31-16.35-3.92-4.78-2.61-8.51-6.34-11.2-11.2-2.69-4.85-4.03-10.53-4.03-17.02s1.32-12.17,3.98-17.02c2.65-4.85,6.36-8.58,11.14-11.2,4.78-2.61,10.27-3.92,16.46-3.92s11.42,1.27,16.13,3.81c4.7,2.54,8.38,6.16,11.03,10.86,2.65,4.7,3.98,10.19,3.98,16.46,0,1.79-.11,3.66-.34,5.6ZM330.95,97.17c0-3.29-1.12-5.9-3.36-7.84-2.24-1.94-5.04-2.91-8.4-2.91s-5.92.93-8.12,2.8c-2.2,1.87-3.57,4.52-4.09,7.95h23.97Z"/>
    <path class="st2" d="M395.46,118.22v16.24h-9.74c-6.94,0-12.36-1.7-16.24-5.1-3.88-3.4-5.82-8.94-5.82-16.63v-24.86h-7.62v-15.9h7.62v-15.23h19.15v15.23h12.54v15.9h-12.54v25.09c0,1.87.45,3.21,1.34,4.03.9.82,2.39,1.23,4.48,1.23h6.83Z"/>
    <path class="st2" d="M424.02,118.67h27.1v15.79h-48.5v-15.23l25.98-31.47h-25.76v-15.79h47.71v15.23l-26.54,31.47Z"/>
    <path class="st2" d="M496.48,118.22v16.24h-9.74c-6.94,0-12.36-1.7-16.24-5.1-3.88-3.4-5.82-8.94-5.82-16.63v-24.86h-7.62v-15.9h7.62v-15.23h19.15v15.23h12.54v15.9h-12.54v25.09c0,1.87.45,3.21,1.34,4.03.9.82,2.39,1.23,4.48,1.23h6.83Z"/>
    <path class="st2" d="M523.97,130.09c-6.16-3.43-11.05-8.23-14.67-14.39-3.62-6.16-5.43-13.08-5.43-20.78s1.81-14.6,5.43-20.72c3.62-6.12,8.51-10.9,14.67-14.34,6.16-3.43,12.94-5.15,20.33-5.15s14.17,1.72,20.33,5.15c6.16,3.43,11.01,8.21,14.56,14.34,3.55,6.12,5.32,13.03,5.32,20.72s-1.79,14.62-5.38,20.78-8.44,10.96-14.56,14.39c-6.12,3.44-12.88,5.15-20.27,5.15s-14.17-1.72-20.33-5.15ZM559.36,111.5c3.77-4.18,5.66-9.71,5.66-16.58s-1.89-12.49-5.66-16.63c-3.77-4.14-8.79-6.22-15.06-6.22s-11.41,2.05-15.18,6.16c-3.77,4.11-5.66,9.67-5.66,16.69s1.88,12.49,5.66,16.63c3.77,4.14,8.83,6.22,15.18,6.22s11.29-2.09,15.06-6.27Z"/>
    <path class="st2" d="M665.48,134.46h-19.15l-32.03-48.5v48.5h-19.15V55.84h19.15l32.03,48.72v-48.72h19.15v78.62Z"/>
  </g>
</svg>