<?xml version="1.0" encoding="UTF-8"?>
<svg id="Ebene_1" data-name="Ebene 1" xmlns="http://www.w3.org/2000/svg" xmlns:xlink="http://www.w3.org/1999/xlink" viewBox="0 0 64 64">
  <defs>
    <style>
      .cls-1 {
        fill: url(#Unbenannter_Verlauf_3);
      }

      .cls-2 {
        fill: #fff;
      }
    </style>
    <linearGradient id="Unbenannter_Verlauf_3" data-name="Unbenannter Verlauf 3" x1="-545.91" y1="848.97" x2="-543.91" y2="846.97" gradientTransform="translate(17469 27166.94) scale(32 -32)" gradientUnits="userSpaceOnUse">
      <stop offset="0" stop-color="#3b6fff"/>
      <stop offset="1" stop-color="#6ee7ff"/>
    </linearGradient>
  </defs>
  <circle class="cls-1" cx="32" cy="32" r="31.97"/>
  <g>
    <path class="cls-2" d="M50.46,32.92v1.89c-.49,9.36-7.93,16.93-17.32,17.48h-2.12c-2.79-.17-5.46-.95-7.89-2.35-5.97-3.45-9.87-9.98-9.51-16.94.24-4.6,2.13-8.96,5.44-12.19,1.35-1.31,3.49-1.18,4.74.11s1.27,3.42-.02,4.72c-4.55,4.61-4.5,11.97.03,16.49s11.91,4.53,16.45,0c4.54-4.53,4.59-11.87.04-16.49-1.3-1.32-1.28-3.47.02-4.76s3.36-1.36,4.7-.07c3.31,3.21,5.18,7.56,5.45,12.11Z"/>
    <path class="cls-2" d="M32.43,11.62c1.63.21,2.94,1.51,2.94,3.24v9.46c0,1.89-1.54,3.33-3.41,3.29s-3.28-1.44-3.27-3.29v-9.46c0-1.71,1.27-2.99,2.89-3.24h.86Z"/>
  </g>
</svg>